<mxfile host="app.diagrams.net" modified="2024-02-25T00:38:52.199Z" agent="Mozilla/5.0 (Windows NT 10.0; Win64; x64) AppleWebKit/537.36 (KHTML, like Gecko) Chrome/120.0.0.0 Safari/537.36 OPR/106.0.0.0" version="23.1.2" etag="PP4FFm_SI8WOPU8efJm4" type="github">
  <diagram name="Page-1" id="zsTWLuxtlyV3KV-3dox_">
    <mxGraphModel>
      <root>
        <mxCell id="0" />
        <mxCell id="1" parent="0" />
      </root>
    </mxGraphModel>
  </diagram>
</mxfile>
